<svg enable-background="new 0 0 180 180" viewBox="0 0 180 180" xmlns="http://www.w3.org/2000/svg">
	<path
		d="m149.8 133.6c0 1.4-.3 3.3-.7 4.8-2.7 10.7-14.4 22.8-31 21.7-15-1-27.3-8.2-27.3-18.3s12.2-18.3 27.3-18.3 31.6 0 31.7 10.1z"
		fill="#1a8cff" />
	<path
		d="m118 125.1c-8.1 0-26.6 2.2-30.8 2.2-7.5 0-13.6 4.7-13.6 10.5 0 2.8 1.4 5.3 3.7 7.2 0 0 5 5 14.1 2.6 4-1.1 10.4-8.9 21.8-10.2 5.7-.6 16.3 3.8 34.9 3.9.8-1.7 1-2.9 1-2.9 0-10.2-16-13.3-31.1-13.3z"
		fill="#06c" />
	<path
		d="m149.1 138.4s10.9-2.2 17.7-11.1c7.9-10.4 6.9-21.6 6.9-21.6 8-15-2.5-29.1-2.5-29.1-1-15.8-10.8-22.4-10.8-22.4-6.4-15.1-20.5-19.2-20.5-19.2-11-12.9-30.6-12.5-30.6-12.5s-18.3-6.7-43.5.8c-4.2 1.2-18.1 4.2-28.3 10.4-32.3 19.8-34.7 50.5-34.3 55.5 2.5 27.9 22.1 32.9 34.6 35.8 2.9 7.9 13.6 22.5 32.9 17.1 23.8-4.2 33.8-11.2 39.6-11.2s22.1 6.2 38.8 7.5z"
		fill="#99c2d6" />
	<g fill="#06c">
		<path
			d="m89 93.5c11.6-6.3 18-5.7 23.5-5.2 1.8.2 3.4.3 5.1.3 9.9-.2 18-4.4 21.5-8.5.9-1.1.7-2.7-.4-3.5-1-.8-2.5-.7-3.4.2-2.7 3.1-9.5 6.6-17.9 6.8-1.5 0-3-.1-4.6-.2-6-.6-13.4-1.2-26.4 5.8-3.3 1.8-7.9 2.5-12.8 3-11-15.9-4.4-29.7-2.5-33 .2 0 .4.1.6.1 2 0 4-.5 5.8-1.5 1.2-.7 1.6-2.3.8-3.4-.7-1.1-2.1-1.5-3.3-.9-3.3 1.8-7.4.8-9.4-2.3-.8-1.1-2.4-1.4-3.5-.6-1.1.7-1.4 2.2-.7 3.3 1.2 1.9 2.9 3.2 4.7 4.2-2.6 5.3-7.5 19.2 1.9 34.8-6.6.6-13.2 1.6-18.4 4.9-3.6 2.4-6.8 5.4-9.4 9-3.1-.5-14.7-3.4-16.7-16.2 1.2-1 2.3-2.2 2.9-3.8.5-1.3-.1-2.7-1.4-3.2s-2.7.1-3.2 1.4c-.4 1.1-1.2 1.9-2.3 2.3s-2.2.2-3.2-.3c-1.2-.7-2.7-.2-3.4 1s-.2 2.7 1 3.4c1.4.8 2.9 1.2 4.4 1.2.2 0 .4-.1.5-.1 2.4 12.1 11.9 17.4 18.7 19-.9 1.9-1.4 3.9-1.7 6-.1 1.4.9 2.6 2.3 2.7h.2c1.3 0 2.4-1 2.5-2.3.5-6.1 6.3-12.4 11.5-15.7 4.8-3.1 11.9-3.8 18.7-4.4 6.8-1.1 13.1-1.7 18-4.3zm64.3-7.5c-.7 1.2-.2 2.7 1 3.4s2.7.2 3.4-1c.1-.2 9.2-17.2-7.9-28.7-1.1-.8-2.7-.5-3.5.7-.8 1.1-.5 2.7.7 3.5 13.3 8.8 6.6 21.5 6.3 22.1zm-103.6-40.4c.8 0 1.6-.4 2-1 7.3-10.1 17.3-6.7 17.7-6.5 1.3.4 2.7-.3 3.2-1.6.4-1.2-.2-2.6-1.4-3.1-4.8-1.8-15.9-2.3-23.5 8.2-.8 1.1-.5 2.7.6 3.5.4.3.9.5 1.4.5zm65.3-9.4c11.1-.9 16.2 7.2 16.4 7.5.7 1.2 2.2 1.6 3.4.9s1.6-2.2.9-3.4c-.3-.5-6.7-11.1-21.1-10-1.4.1-2.4 1.3-2.3 2.7.2 1.3 1.4 2.4 2.7 2.3zm45.8 73c-1.2-.1-2.6.9-2.7 2.3 0 .1-.8 8.6-9.6 11.5-1.3.4-2 1.8-1.6 3.1.3 1.1 1.3 1.8 2.4 1.7.3 0 .5 0 .8-.1 11.9-3.9 12.9-15.3 13-15.8.1-1.4-.9-2.6-2.3-2.7z" />
		<path
			d="m37 84.9c-.4 1.3.3 2.7 1.7 3.1 1.3.4 2.7-.3 3.1-1.7 0-.1 0-.1 0-.2 1-3.6 4.6-5.8 8.3-5.1 1.4.3 2.7-.6 3-1.9.3-1.4-.6-2.7-1.9-3-2.1-.4-4.2-.3-6.2.4-5.8-10-4.7-19.8-4.7-19.9.2-1.4-.8-2.6-2.1-2.8-1.4-.2-2.6.8-2.8 2.1-.1.5-1.4 11.6 5.3 23.1-1.8 1.7-3.1 3.7-3.7 5.9zm55.9-12.3c2.1-1.9 5.2-1.9 7.3.1 1 1 2.6.9 3.5-.1 1-1 .9-2.6-.1-3.5-1.1-1.1-2.5-1.9-4-2.3 1.5-5.1.9-7.3-.5-11.6-.3-.8-.5-1.7-.8-2.5l-.2-.5c-1.8-6-3-10 .4-15.6.7-1.2.4-2.7-.8-3.4s-2.7-.4-3.4.8c-4.6 7.5-2.9 13.2-1 19.7l.2.5c.3 1 .6 1.8.8 2.6 1.2 3.8 1.6 5.1.1 9.7-1.9.3-3.6 1.2-5.1 2.5-1 1-1 2.5 0 3.5 1.1.9 2.6.9 3.6.1zm31.9-15c1.5 0 3-.3 4.3-1 1.2-.6 1.8-2.1 1.2-3.3s-2.1-1.8-3.3-1.2c-2.5 1.2-5.6.2-6.9-2.3-.6-1.2-2.1-1.7-3.3-1.1s-1.7 2.1-1.1 3.3c0 0 0 .1.1.1.9 1.7 2.2 3 3.8 3.9-2.7 6.5-1.2 13.5.1 17.1.4 1.3 1.8 2.1 3.1 1.7s2.1-1.8 1.7-3.1c0-.1 0-.1-.1-.2-.8-2.5-2.5-8.8 0-14.1 0 .2.2.2.4.2zm23.9 47.2c-.1-1.4-1.3-2.4-2.6-2.3-5 .3-9.4-3.4-9.7-8.5-.1-1.4-1.3-2.4-2.7-2.3s-2.4 1.3-2.3 2.7c.2 3 1.3 5.6 3 7.8-4 4.7-9.3 6.1-12.2 6.4-2.6.3-4.9 0-7.5-.3-2.4-.3-5.1-.6-8.5-.5-.1-1.4-.4-3.5-1.5-5.2-.8-1.1-2.4-1.4-3.5-.6-1 .7-1.3 2.1-.7 3.2.7 1.1.8 2.8.8 3.6-2.5.9-4.7 2.2-6.7 3.5-3.5 2.3-6.3 4.1-10.5 3.2-3.8-.9-7.6-1-10.8-.6-.5-1.3-1.3-2.8-2.5-3.9-1-.9-2.6-.9-3.5.1s-.9 2.6.1 3.5c.4.4.8 1 1 1.6-5.5 2.3-8.3 6.1-8.4 6.2-.8 1.1-.5 2.7.6 3.5.4.3.9.5 1.4.5.8 0 1.6-.4 2-1 0 0 2.8-3.7 8.2-5.2 2.8-.8 6.8-.7 10.7.2 1.1.2 2.1.3 3.1.3.5 1.1.6 2.4.7 2.9.1 1.3 1.2 2.4 2.5 2.4h.1c1.4-.1 2.4-1.2 2.4-2.6-.1-1.2-.3-2.3-.7-3.4 2.3-.8 4.3-2.1 6.2-3.4 2.9-1.9 5.6-3.6 9.1-3.7 3-.1 5.4.2 7.8.5s4.7.5 7.3.3c.5 1.3.4 3 .3 3.5-.2 1.4.8 2.6 2.2 2.8h.3c1.3 0 2.3-.9 2.5-2.2.2-1.6.1-3.3-.3-4.9 4.6-1.2 8.6-3.8 11.7-7.4 2.5 1.5 5.4 2.3 8.3 2.1 1.4-.3 2.4-1.4 2.3-2.8z" />
	</g>
</svg>